<?xml version="1.0" standalone="no"?>
<!DOCTYPE svg PUBLIC "-//W3C//DTD SVG 20010904//EN"
 "http://www.w3.org/TR/2001/REC-SVG-20010904/DTD/svg10.dtd">
<svg version="1.0" xmlns="http://www.w3.org/2000/svg"
 width="390.000000pt" height="390.000000pt" viewBox="0 0 390.000000 390.000000"
 preserveAspectRatio="xMidYMid meet">
<metadata>
Created by potrace 1.14, written by Peter Selinger 2001-2017
</metadata>
<g transform="translate(0.000000,390.000000) scale(0.100000,-0.100000)"
fill="#000000" stroke="none">
<path d="M1892 3854 c-47 -33 -52 -59 -52 -271 l0 -198 -132 132 c-146 145
-168 158 -230 129 -48 -23 -64 -57 -60 -124 2 -16 67 -87 212 -229 l210 -206
0 -86 0 -87 -35 -13 c-44 -15 -67 -49 -67 -97 0 -46 29 -86 70 -99 l32 -9 0
-111 0 -111 -53 -17 c-63 -20 -160 -76 -204 -119 l-32 -31 -94 54 c-94 52 -95
53 -90 86 16 95 -96 161 -171 102 -14 -11 -30 -19 -34 -17 -4 2 -36 19 -70 38
-72 40 -57 3 -147 350 -31 118 -61 228 -67 244 -13 32 -62 66 -96 66 -53 0
-112 -56 -112 -107 0 -10 20 -92 45 -182 24 -91 43 -167 40 -169 -2 -2 -77 38
-167 90 -90 52 -174 98 -187 101 -30 7 -79 -13 -106 -42 -24 -28 -26 -88 -3
-123 9 -14 91 -68 188 -123 94 -54 169 -99 167 -101 -2 -2 -79 -24 -173 -48
-147 -39 -173 -49 -196 -76 -39 -43 -39 -101 1 -140 16 -16 39 -32 52 -35 15
-4 132 23 307 70 l282 76 70 -41 c69 -40 71 -42 64 -74 -11 -62 44 -126 109
-126 13 0 40 11 59 23 l34 24 93 -55 c87 -51 92 -56 86 -81 -22 -82 -22 -200
0 -282 6 -25 1 -30 -87 -82 l-93 -55 -25 24 c-76 71 -189 13 -177 -91 l5 -46
-69 -40 -69 -40 -282 76 c-175 47 -292 74 -307 70 -13 -3 -36 -19 -52 -35 -40
-39 -40 -97 -1 -140 23 -27 49 -37 197 -76 94 -25 171 -47 172 -48 1 -1 -73
-46 -166 -99 -92 -54 -175 -105 -184 -115 -37 -41 -34 -103 8 -144 55 -55 87
-46 318 90 91 54 136 76 133 64 -3 -9 -26 -91 -50 -180 -42 -150 -44 -167 -32
-195 21 -50 52 -72 102 -72 78 0 85 14 170 331 81 303 73 287 168 338 l54 29
27 -21 c33 -26 91 -29 124 -6 30 22 52 75 45 111 -5 26 0 31 85 81 49 28 94
52 99 52 4 0 19 -12 33 -26 39 -43 134 -100 199 -120 l60 -18 0 -111 0 -111
-32 -9 c-41 -13 -70 -53 -70 -99 0 -48 23 -82 67 -97 l35 -13 0 -87 0 -86
-210 -206 c-147 -143 -210 -212 -212 -228 -4 -68 12 -102 60 -125 62 -29 84
-16 230 129 l132 132 0 -198 c0 -212 5 -238 52 -271 29 -20 87 -20 116 0 47
33 52 59 52 271 l0 198 133 -132 c145 -145 167 -158 229 -129 65 31 81 109 34
170 -14 18 -109 114 -211 211 l-185 179 0 86 0 86 35 13 c44 15 67 49 67 97 0
46 -29 86 -70 99 l-32 9 0 111 0 111 53 17 c63 20 160 76 204 119 l32 31 94
-54 c94 -52 95 -53 90 -86 -16 -95 96 -161 171 -102 14 11 30 19 34 17 4 -2
36 -19 70 -38 72 -40 57 -3 147 -350 68 -260 70 -267 109 -291 75 -46 166 1
168 86 0 17 -18 101 -41 188 -23 88 -40 161 -38 163 2 3 75 -36 160 -86 189
-109 195 -112 241 -99 66 18 97 96 62 158 -9 16 -82 64 -190 127 l-176 101
168 44 c144 38 172 48 200 75 44 44 45 102 3 144 -16 16 -39 32 -52 35 -15 4
-132 -23 -307 -70 l-282 -76 -69 40 -69 40 5 46 c12 104 -101 162 -177 91
l-25 -24 -93 55 c-88 52 -93 57 -87 82 22 82 22 200 0 282 -6 25 -1 30 86 81
l93 55 34 -24 c19 -12 46 -23 59 -23 65 0 120 64 109 126 -7 32 -5 34 64 74
l70 41 282 -76 c175 -47 292 -74 307 -70 13 3 36 19 52 35 40 39 40 97 2 140
-24 27 -50 37 -198 76 -93 25 -171 47 -172 48 -1 1 73 45 166 99 92 53 176
105 185 116 10 11 20 37 23 59 5 35 1 44 -29 77 -56 62 -81 56 -286 -63 -111
-65 -171 -95 -168 -84 39 130 89 324 88 347 -2 82 -87 129 -162 90 -16 -8 -35
-25 -41 -37 -7 -13 -45 -146 -85 -297 -40 -150 -75 -275 -76 -276 -2 -1 -33
-19 -70 -39 l-68 -38 -26 21 c-18 14 -41 21 -70 21 -34 0 -48 -6 -74 -32 -29
-28 -32 -37 -28 -78 l5 -46 -93 -52 -93 -53 -56 46 c-62 50 -128 86 -192 105
l-43 13 0 112 0 111 32 9 c41 13 70 53 70 99 0 48 -23 82 -67 97 l-35 13 0 86
0 86 185 179 c102 97 197 193 211 211 47 61 31 139 -34 170 -62 29 -84 16
-229 -129 l-133 -132 0 198 c0 212 -5 238 -52 271 -12 9 -38 16 -58 16 -20 0
-46 -7 -58 -16z m192 -1618 c198 -91 244 -355 90 -510 -93 -93 -241 -119 -355
-63 -67 32 -132 100 -162 165 -28 65 -28 179 0 243 74 167 265 241 427 165z"/>
</g>
</svg>
